<svg xmlns="http://www.w3.org/2000/svg" viewBox="0 0 1920 1080" preserveAspectRatio="xMidYMid slice">
  <defs>
    <linearGradient id="sky4" x1="0" y1="0" x2="0" y2="1">
      <stop offset="0" stop-color="#060a18"/>
      <stop offset="1" stop-color="#101c30"/>
    </linearGradient>
    <linearGradient id="aur" x1="0" y1="0" x2="0" y2="1">
      <stop offset="0" stop-color="#3ecf8e" stop-opacity="0"/>
      <stop offset="0.5" stop-color="#3ecf8e" stop-opacity="0.35"/>
      <stop offset="1" stop-color="#6d7ff2" stop-opacity="0.15"/>
    </linearGradient>
  </defs>
  <rect width="1920" height="1080" fill="url(#sky4)"/>
  <path d="M100 80 Q400 300 300 620 L520 620 Q560 300 820 100 Z" fill="url(#aur)"/>
  <path d="M700 40 Q980 320 900 640 L1150 640 Q1160 300 1420 60 Z" fill="url(#aur)" opacity="0.8"/>
  <path d="M1300 100 Q1560 340 1500 660 L1720 660 Q1760 320 1900 140 Z" fill="url(#aur)" opacity="0.6"/>
  <g fill="#dfe6f2">
    <circle cx="300" cy="160" r="1.4"/><circle cx="640" cy="240" r="1.1"/><circle cx="990" cy="120" r="1.6"/>
    <circle cx="1350" cy="260" r="1.2"/><circle cx="1680" cy="150" r="1.4"/><circle cx="180" cy="420" r="1.1"/>
  </g>
  <path d="M0 820 L420 760 L900 810 L1380 750 L1920 800 L1920 1080 L0 1080 Z" fill="#0c1220"/>
  <path d="M0 940 L500 890 L1000 930 L1500 880 L1920 920 L1920 1080 L0 1080 Z" fill="#070c16"/>
</svg>
