<svg xmlns="http://www.w3.org/2000/svg" viewBox="0 0 1920 1080" preserveAspectRatio="xMidYMid slice">
  <defs>
    <linearGradient id="sky" x1="0" y1="0" x2="0" y2="1">
      <stop offset="0" stop-color="#1a1e3a"/>
      <stop offset="0.55" stop-color="#4a3a68"/>
      <stop offset="0.8" stop-color="#c46a5a"/>
      <stop offset="1" stop-color="#e8a06a"/>
    </linearGradient>
  </defs>
  <rect width="1920" height="1080" fill="url(#sky)"/>
  <circle cx="960" cy="820" r="110" fill="#f2c98a" opacity="0.9"/>
  <path d="M0 760 L300 640 L520 720 L780 600 L1050 730 L1300 620 L1560 710 L1920 640 L1920 1080 L0 1080 Z" fill="#2a2440" opacity="0.9"/>
  <path d="M0 860 L260 780 L540 850 L860 760 L1180 850 L1480 780 L1920 840 L1920 1080 L0 1080 Z" fill="#1c1830"/>
  <path d="M0 960 L400 900 L800 950 L1200 890 L1600 950 L1920 910 L1920 1080 L0 1080 Z" fill="#131022"/>
</svg>
