<svg xmlns="http://www.w3.org/2000/svg" viewBox="0 0 1920 1080" preserveAspectRatio="xMidYMid slice">
  <defs>
    <linearGradient id="sky3" x1="0" y1="0" x2="0" y2="1">
      <stop offset="0" stop-color="#0a0d1c"/>
      <stop offset="1" stop-color="#25204a"/>
    </linearGradient>
    <linearGradient id="dune1" x1="0" y1="0" x2="1" y2="1">
      <stop offset="0" stop-color="#4a3868"/>
      <stop offset="1" stop-color="#2c2148"/>
    </linearGradient>
  </defs>
  <rect width="1920" height="1080" fill="url(#sky3)"/>
  <g fill="#e8ecf4">
    <circle cx="200" cy="140" r="1.6"/><circle cx="480" cy="90" r="1.2"/><circle cx="750" cy="200" r="1.8"/>
    <circle cx="1020" cy="80" r="1.3"/><circle cx="1250" cy="170" r="1.5"/><circle cx="1540" cy="110" r="1.2"/>
    <circle cx="1780" cy="220" r="1.7"/><circle cx="360" cy="290" r="1.1"/><circle cx="890" cy="320" r="1.4"/>
    <circle cx="1420" cy="300" r="1.2"/><circle cx="640" cy="60" r="1.5"/><circle cx="1660" cy="60" r="1.3"/>
  </g>
  <path d="M0 620 Q480 480 960 610 T1920 560 L1920 1080 L0 1080 Z" fill="url(#dune1)"/>
  <path d="M0 800 Q600 660 1100 800 T1920 760 L1920 1080 L0 1080 Z" fill="#1e1838"/>
  <path d="M0 950 Q700 850 1400 950 T1920 920 L1920 1080 L0 1080 Z" fill="#120e26"/>
</svg>
